<svg width="13" height="12" viewBox="0 0 13 12" fill="none" xmlns="http://www.w3.org/2000/svg">
<g id="fi-rr-layers" clip-path="url(#clip0_24036_49018)">
<path id="Vector" d="M11.7426 5.48764L6.50012 8.63364L1.25762 5.48764C1.14391 5.41941 1.00775 5.39915 0.879103 5.43131C0.750453 5.46347 0.639849 5.54543 0.571622 5.65914C0.503395 5.77285 0.483134 5.90901 0.515297 6.03766C0.547459 6.16631 0.62941 6.27691 0.743122 6.34514L6.24312 9.64514C6.32089 9.69186 6.4099 9.71654 6.50062 9.71654C6.59134 9.71654 6.68036 9.69186 6.75812 9.64514L12.2581 6.34514C12.3718 6.27691 12.4538 6.16631 12.4859 6.03766C12.5181 5.90901 12.4979 5.77285 12.4296 5.65914C12.3614 5.54543 12.2508 5.46347 12.1221 5.43131C11.9935 5.39915 11.8573 5.41941 11.7436 5.48764H11.7426Z" fill="#2E6980"/>
<path id="Vector_2" d="M11.7426 7.77139L6.50012 10.9169L1.25762 7.77139C1.20132 7.73761 1.13891 7.71525 1.07396 7.70558C1.00902 7.69592 0.942803 7.69914 0.879102 7.71506C0.815401 7.73099 0.75546 7.75931 0.702702 7.7984C0.649945 7.83749 0.605403 7.88659 0.57162 7.94289C0.537838 7.9992 0.515476 8.0616 0.505812 8.12655C0.496147 8.1915 0.49937 8.25771 0.515295 8.32141C0.547458 8.45006 0.629409 8.56067 0.74312 8.62889L6.24312 11.9289C6.32089 11.9756 6.4099 12.0003 6.50062 12.0003C6.59134 12.0003 6.68036 11.9756 6.75812 11.9289L12.2581 8.62889C12.3718 8.56067 12.4538 8.45006 12.4859 8.32141C12.5181 8.19276 12.4978 8.0566 12.4296 7.94289C12.3614 7.82918 12.2508 7.74723 12.1221 7.71506C11.9935 7.6829 11.8573 7.70316 11.7436 7.77139H11.7426Z" fill="#2E6980"/>
<path id="Vector_3" d="M6.49996 7.38671C6.23025 7.38656 5.96566 7.31311 5.73446 7.17421L0.742464 4.17871C0.668538 4.13426 0.607369 4.07144 0.564904 3.99635C0.522439 3.92127 0.500122 3.83647 0.500122 3.75021C0.500122 3.66395 0.522439 3.57916 0.564904 3.50407C0.607369 3.42899 0.668538 3.36616 0.742464 3.32171L5.73446 0.326211C5.96565 0.187326 6.23027 0.113953 6.49996 0.113953C6.76966 0.113953 7.03428 0.187326 7.26546 0.326211L12.2575 3.32171C12.3314 3.36616 12.3926 3.42899 12.435 3.50407C12.4775 3.57916 12.4998 3.66395 12.4998 3.75021C12.4998 3.83647 12.4775 3.92127 12.435 3.99635C12.3926 4.07144 12.3314 4.13426 12.2575 4.17871L7.26546 7.17421C7.03427 7.31311 6.76967 7.38656 6.49996 7.38671ZM1.97196 3.75021L6.24996 6.31671C6.32552 6.36191 6.41192 6.38578 6.49996 6.38578C6.58801 6.38578 6.67441 6.36191 6.74996 6.31671L11.028 3.75021L6.74996 1.18371C6.67441 1.13851 6.58801 1.11465 6.49996 1.11465C6.41192 1.11465 6.32552 1.13851 6.24996 1.18371L1.97196 3.75021Z" fill="#2E6980"/>
</g>
<defs>
<clipPath id="clip0_24036_49018">
<rect width="12" height="12" fill="white" transform="translate(0.5)"/>
</clipPath>
</defs>
</svg>
