<svg width="13" height="12" viewBox="0 0 13 12" fill="none" xmlns="http://www.w3.org/2000/svg">
<g id="fi-rr-settings-sliders" clip-path="url(#clip0_23954_87191)">
<path id="Vector" d="M0.833374 2.37519H2.20137C2.30869 2.77006 2.54296 3.11864 2.86804 3.36716C3.19311 3.61567 3.59093 3.75032 4.00012 3.75032C4.40931 3.75032 4.80713 3.61567 5.13221 3.36716C5.45729 3.11864 5.69156 2.77006 5.79887 2.37519H11.8334C11.966 2.37519 12.0932 2.32251 12.1869 2.22874C12.2807 2.13498 12.3334 2.0078 12.3334 1.87519C12.3334 1.74258 12.2807 1.61541 12.1869 1.52164C12.0932 1.42787 11.966 1.37519 11.8334 1.37519H5.79887C5.69156 0.980325 5.45729 0.631743 5.13221 0.383225C4.80713 0.134707 4.40931 6.10352e-05 4.00012 6.10352e-05C3.59093 6.10352e-05 3.19311 0.134707 2.86804 0.383225C2.54296 0.631743 2.30869 0.980325 2.20137 1.37519H0.833374C0.700766 1.37519 0.573589 1.42787 0.479821 1.52164C0.386052 1.61541 0.333374 1.74258 0.333374 1.87519C0.333374 2.0078 0.386052 2.13498 0.479821 2.22874C0.573589 2.32251 0.700766 2.37519 0.833374 2.37519ZM3.99987 1.00019C4.17293 1.00019 4.3421 1.05151 4.486 1.14765C4.62989 1.2438 4.74204 1.38046 4.80827 1.54034C4.8745 1.70023 4.89182 1.87616 4.85806 2.04589C4.8243 2.21563 4.74096 2.37154 4.61859 2.49391C4.49622 2.61628 4.34031 2.69962 4.17058 2.73338C4.00084 2.76714 3.82491 2.74981 3.66503 2.68359C3.50514 2.61736 3.36848 2.50521 3.27234 2.36131C3.17619 2.21742 3.12487 2.04825 3.12487 1.87519C3.12514 1.64321 3.21741 1.4208 3.38145 1.25676C3.54549 1.09273 3.76789 1.00046 3.99987 1.00019Z" fill="#2E6980"/>
<path id="Vector_2" d="M11.8334 5.49958H10.4654C10.3582 5.10462 10.1241 4.75591 9.79901 4.50729C9.47396 4.25867 9.07611 4.12396 8.66687 4.12396C8.25764 4.12396 7.85979 4.25867 7.53474 4.50729C7.20969 4.75591 6.97551 5.10462 6.86837 5.49958H0.833374C0.700766 5.49958 0.573589 5.55226 0.479821 5.64602C0.386052 5.73979 0.333374 5.86697 0.333374 5.99958C0.333374 6.13218 0.386052 6.25936 0.479821 6.35313C0.573589 6.4469 0.700766 6.49957 0.833374 6.49957H6.86837C6.97551 6.89453 7.20969 7.24324 7.53474 7.49186C7.85979 7.74048 8.25764 7.87519 8.66687 7.87519C9.07611 7.87519 9.47396 7.74048 9.79901 7.49186C10.1241 7.24324 10.3582 6.89453 10.4654 6.49957H11.8334C11.966 6.49957 12.0932 6.4469 12.1869 6.35313C12.2807 6.25936 12.3334 6.13218 12.3334 5.99958C12.3334 5.86697 12.2807 5.73979 12.1869 5.64602C12.0932 5.55226 11.966 5.49958 11.8334 5.49958ZM8.66687 6.87457C8.49382 6.87457 8.32464 6.82326 8.18075 6.72711C8.03686 6.63096 7.92471 6.49431 7.85848 6.33442C7.79225 6.17454 7.77492 5.99861 7.80869 5.82887C7.84245 5.65914 7.92579 5.50323 8.04816 5.38086C8.17053 5.25849 8.32644 5.17515 8.49617 5.14139C8.6659 5.10763 8.84184 5.12496 9.00172 5.19118C9.16161 5.25741 9.29826 5.36956 9.39441 5.51345C9.49056 5.65735 9.54187 5.82652 9.54187 5.99958C9.54161 6.23156 9.44934 6.45396 9.2853 6.618C9.12126 6.78204 8.89886 6.87431 8.66687 6.87457Z" fill="#2E6980"/>
<path id="Vector_3" d="M11.8334 9.62512H5.79887C5.69156 9.23026 5.45729 8.88168 5.13221 8.63316C4.80713 8.38465 4.40931 8.25 4.00012 8.25C3.59093 8.25 3.19311 8.38465 2.86804 8.63316C2.54296 8.88168 2.30869 9.23026 2.20137 9.62512H0.833374C0.700766 9.62512 0.573589 9.6778 0.479821 9.77157C0.386052 9.86534 0.333374 9.99251 0.333374 10.1251C0.333374 10.2577 0.386052 10.3849 0.479821 10.4787C0.573589 10.5724 0.700766 10.6251 0.833374 10.6251H2.20137C2.30869 11.02 2.54296 11.3686 2.86804 11.6171C3.19311 11.8656 3.59093 12.0002 4.00012 12.0002C4.40931 12.0002 4.80713 11.8656 5.13221 11.6171C5.45729 11.3686 5.69156 11.02 5.79887 10.6251H11.8334C11.966 10.6251 12.0932 10.5724 12.1869 10.4787C12.2807 10.3849 12.3334 10.2577 12.3334 10.1251C12.3334 9.99251 12.2807 9.86534 12.1869 9.77157C12.0932 9.6778 11.966 9.62512 11.8334 9.62512ZM3.99987 11.0001C3.82682 11.0001 3.65764 10.9488 3.51375 10.8527C3.36986 10.7565 3.25771 10.6199 3.19148 10.46C3.12525 10.3001 3.10792 10.1242 3.14169 9.95442C3.17545 9.78469 3.25878 9.62878 3.38116 9.50641C3.50353 9.38404 3.65944 9.3007 3.82917 9.26694C3.9989 9.23318 4.17484 9.2505 4.33472 9.31673C4.49461 9.38296 4.63126 9.49511 4.72741 9.639C4.82356 9.78289 4.87487 9.95206 4.87487 10.1251C4.87448 10.3571 4.78216 10.5794 4.61815 10.7434C4.45415 10.9074 4.23182 10.9997 3.99987 11.0001Z" fill="#2E6980"/>
</g>
<defs>
<clipPath id="clip0_23954_87191">
<rect width="12" height="12" fill="white" transform="translate(0.333374)"/>
</clipPath>
</defs>
</svg>
