<svg xmlns="http://www.w3.org/2000/svg" width="20" height="20" viewBox="0 0 20 20" fill="none">
  <path d="M17.7556 11.6884L17.7555 11.6884L17.7517 11.6936C16.7246 13.111 15.4916 14.3399 14.2193 15.4226L14.2108 15.4298L14.2027 15.4374C13.6199 15.9798 12.6697 16.7937 11.7803 17.4775C11.3351 17.8197 10.9132 18.1231 10.5649 18.3424C10.3903 18.4523 10.2421 18.536 10.1238 18.5923C10.067 18.6193 10.0251 18.6361 9.99628 18.6464C9.81899 18.5894 9.59712 18.457 9.33289 18.2584C9.18558 18.1477 9.0405 18.0287 8.89433 17.9087L8.88701 17.9027C8.74867 17.7891 8.60489 17.6711 8.47127 17.5729C5.69518 15.4624 2.79025 12.9539 1.32774 10.2541C0.115554 7.67368 0.165361 4.59867 1.93537 2.73554C4.28728 0.629259 7.81864 1.05241 9.60117 3.2476L9.99951 3.73816L10.3853 3.23768C10.8628 2.61823 11.4469 2.13149 12.1416 1.77412C15.0134 0.639293 17.9479 1.80575 19.144 4.35525C19.979 6.97059 19.2745 9.64821 17.7556 11.6884Z" fill="#142B33" fill-opacity="0.4" stroke="white"/>
</svg>