<svg width="14" height="14" viewBox="0 0 14 14" fill="none" xmlns="http://www.w3.org/2000/svg">
<g id="fi-rr-home" clip-path="url(#clip0_23954_27949)">
<path id="Vector" d="M13.4873 5.29014L9.06267 0.864975C8.51507 0.318969 7.77331 0.0123596 7.00001 0.0123596C6.2267 0.0123596 5.48495 0.318969 4.93734 0.864975L0.512757 5.29014C0.349672 5.45218 0.220373 5.64498 0.132355 5.85737C0.0443376 6.06975 -0.000647734 6.29749 7.04637e-06 6.52739V12.254C7.04637e-06 12.7181 0.184382 13.1632 0.51257 13.4914C0.840759 13.8196 1.28588 14.004 1.75001 14.004H12.25C12.7141 14.004 13.1593 13.8196 13.4874 13.4914C13.8156 13.1632 14 12.7181 14 12.254V6.52739C14.0007 6.29749 13.9557 6.06975 13.8677 5.85737C13.7796 5.64498 13.6503 5.45218 13.4873 5.29014ZM8.75001 12.8373H5.25001V10.5425C5.25001 10.0783 5.43438 9.63323 5.76257 9.30504C6.09076 8.97685 6.53588 8.79247 7.00001 8.79247C7.46414 8.79247 7.90926 8.97685 8.23744 9.30504C8.56563 9.63323 8.75001 10.0783 8.75001 10.5425V12.8373ZM12.8333 12.254C12.8333 12.4087 12.7719 12.5571 12.6625 12.6665C12.5531 12.7759 12.4047 12.8373 12.25 12.8373H9.91667V10.5425C9.91667 9.76893 9.60938 9.02706 9.0624 8.48008C8.51542 7.9331 7.77356 7.62581 7.00001 7.62581C6.22646 7.62581 5.48459 7.9331 4.93761 8.48008C4.39063 9.02706 4.08334 9.76893 4.08334 10.5425V12.8373H1.75001C1.5953 12.8373 1.44692 12.7759 1.33753 12.6665C1.22813 12.5571 1.16667 12.4087 1.16667 12.254V6.52739C1.16721 6.3728 1.22862 6.22463 1.33759 6.11497L5.76217 1.69156C6.091 1.36427 6.53606 1.18052 7.00001 1.18052C7.46395 1.18052 7.90902 1.36427 8.23784 1.69156L12.6624 6.11672C12.771 6.22595 12.8323 6.3734 12.8333 6.52739V12.254Z" fill="#142B33"/>
</g>
<defs>
<clipPath id="clip0_23954_27949">
<rect width="14" height="14" fill="white"/>
</clipPath>
</defs>
</svg>
