<svg width="13" height="12" viewBox="0 0 13 12" fill="none" xmlns="http://www.w3.org/2000/svg">
<g id="fi-rr-world" clip-path="url(#clip0_23954_56328)">
<path id="Vector" d="M6.66675 0C5.48006 0 4.32002 0.351894 3.33333 1.01118C2.34663 1.67047 1.5776 2.60754 1.12347 3.7039C0.669348 4.80026 0.550528 6.00666 0.782039 7.17054C1.01355 8.33443 1.58499 9.40353 2.42411 10.2426C3.26323 11.0818 4.33232 11.6532 5.49621 11.8847C6.6601 12.1162 7.8665 11.9974 8.96285 11.5433C10.0592 11.0892 10.9963 10.3201 11.6556 9.33342C12.3149 8.34673 12.6668 7.18669 12.6668 6C12.665 4.40923 12.0323 2.88411 10.9075 1.75926C9.78265 0.634414 8.25752 0.00172054 6.66675 0V0ZM11.6668 6C11.6673 6.97986 11.3782 7.93801 10.8358 8.754L10.2398 8.1575C10.193 8.11065 10.1668 8.04718 10.1668 7.981V7.5C10.1668 7.10218 10.0087 6.72064 9.72741 6.43934C9.44611 6.15804 9.06458 6 8.66675 6H7.16675C7.03414 6 6.90697 5.94732 6.8132 5.85355C6.71943 5.75979 6.66675 5.63261 6.66675 5.5V5.25C6.66675 5.1837 6.69309 5.12011 6.73997 5.07322C6.78686 5.02634 6.85045 5 6.91675 5C7.24827 5 7.56621 4.8683 7.80063 4.63388C8.03505 4.39946 8.16675 4.08152 8.16675 3.75V3.25C8.16675 3.1837 8.19309 3.12011 8.23997 3.07322C8.28686 3.02634 8.35045 3 8.41675 3H9.10625C9.43745 2.99906 9.75491 2.86754 9.98975 2.634L10.1783 2.4455C10.6498 2.90954 11.0243 3.46282 11.2799 4.07309C11.5355 4.68335 11.667 5.33839 11.6668 6ZM1.69125 6.4815L3.27025 8.0605C3.4092 8.20035 3.57454 8.31121 3.75667 8.38666C3.93881 8.4621 4.13411 8.50063 4.33125 8.5H5.66675C5.79936 8.5 5.92654 8.55268 6.0203 8.64645C6.11407 8.74022 6.16675 8.86739 6.16675 9V10.9745C5.01685 10.8571 3.94295 10.3456 3.12721 9.52666C2.31148 8.70774 1.80414 7.63185 1.69125 6.4815ZM7.16675 10.9745V9C7.16675 8.60218 7.00872 8.22064 6.72741 7.93934C6.44611 7.65804 6.06458 7.5 5.66675 7.5H4.33125C4.26551 7.50005 4.20041 7.48714 4.13966 7.462C4.07892 7.43686 4.02373 7.39999 3.97725 7.3535L1.74825 5.1245C1.89134 4.3111 2.23412 3.54595 2.74584 2.89769C3.25756 2.24943 3.9222 1.73835 4.68015 1.41031C5.43809 1.08226 6.26562 0.947508 7.08848 1.01814C7.91134 1.08877 8.7038 1.36258 9.39475 1.815L9.28275 1.927C9.23569 1.97341 9.17235 1.99961 9.10625 2H8.41675C8.08523 2 7.76729 2.1317 7.53287 2.36612C7.29845 2.60054 7.16675 2.91848 7.16675 3.25V3.75C7.16675 3.8163 7.14041 3.87989 7.09353 3.92678C7.04664 3.97366 6.98306 4 6.91675 4C6.58523 4 6.26729 4.1317 6.03287 4.36612C5.79845 4.60054 5.66675 4.91848 5.66675 5.25V5.5C5.66675 5.89783 5.82479 6.27936 6.10609 6.56066C6.38739 6.84197 6.76893 7 7.16675 7H8.66675C8.79936 7 8.92654 7.05268 9.0203 7.14645C9.11407 7.24022 9.16675 7.36739 9.16675 7.5V7.981C9.16769 8.3122 9.29921 8.62966 9.53275 8.8645L10.2013 9.533C9.38698 10.3501 8.31456 10.8595 7.16675 10.9745Z" fill="#2E6980"/>
</g>
<defs>
<clipPath id="clip0_23954_56328">
<rect width="12" height="12" fill="white" transform="translate(0.666748)"/>
</clipPath>
</defs>
</svg>
