<svg width="24" height="24" viewBox="0 0 24 24" fill="none" xmlns="http://www.w3.org/2000/svg">
<g id="ant-design:star-filled">
<path id="Vector" d="M21.9276 7.94454L15.9768 7.0797L13.3167 1.68673C13.244 1.53907 13.1245 1.41954 12.9768 1.34688C12.6065 1.16407 12.1565 1.31641 11.9714 1.68673L9.31122 7.0797L3.36043 7.94454C3.19637 7.96798 3.04637 8.04532 2.93153 8.16251C2.79269 8.30521 2.71618 8.4972 2.71882 8.69628C2.72145 8.89536 2.80302 9.08525 2.94559 9.22423L7.25106 13.4219L6.23387 19.3492C6.21002 19.4871 6.22528 19.6289 6.27792 19.7586C6.33055 19.8882 6.41847 20.0005 6.53169 20.0828C6.64491 20.165 6.7789 20.2139 6.91848 20.2238C7.05806 20.2338 7.19763 20.2044 7.32137 20.1391L12.644 17.3406L17.9667 20.1391C18.112 20.2164 18.2808 20.2422 18.4425 20.2141C18.8503 20.1438 19.1245 19.757 19.0542 19.3492L18.037 13.4219L22.3425 9.22423C22.4597 9.10938 22.537 8.95938 22.5604 8.79532C22.6237 8.38516 22.3378 8.00548 21.9276 7.94454Z" fill="#F6D731"/>
</g>
</svg>
