<svg width="18" height="18" viewBox="0 0 18 18" fill="none" xmlns="http://www.w3.org/2000/svg">
<path id="Vector" fill-rule="evenodd" clip-rule="evenodd" d="M9 0C13.9705 0 18 4.02955 18 9C18 13.9705 13.9705 18 9 18C4.02955 18 0 13.9705 0 9C0 4.02955 4.02955 0 9 0ZM7.19427 6.30573C7.04523 6.15142 6.96277 5.94474 6.96463 5.73022C6.96649 5.51569 7.05254 5.31048 7.20424 5.15878C7.35594 5.00709 7.56115 4.92104 7.77567 4.91918C7.9902 4.91731 8.19687 4.99978 8.35118 5.14882L11.6239 8.42155C11.7773 8.57498 11.8635 8.78305 11.8635 9C11.8635 9.21695 11.7773 9.42502 11.6239 9.57845L8.35118 12.8512C8.19687 13.0002 7.9902 13.0827 7.77567 13.0808C7.56115 13.079 7.35594 12.9929 7.20424 12.8412C7.05254 12.6895 6.96649 12.4843 6.96463 12.2698C6.96277 12.0553 7.04523 11.8486 7.19427 11.6943L9.88855 9L7.19427 6.30573Z" fill="white" fill-opacity="0.7"/>
</svg>
